<?xml version="1.0" encoding="UTF-8" standalone="no"?>
<!-- Uploaded to: SVG Repo, www.svgrepo.com, Generator: SVG Repo Mixer Tools -->

<svg
   fill="#000000"
   width="30"
   height="30"
   viewBox="0 0 0.9 0.9"
   role="img"
   version="1.1"
   id="svg208"
   sodipodi:docname="googlescholar-svgrepo-com.svg"
   inkscape:version="1.2.2 (1:1.2.2+202212051552+b0a8486541)"
   xml:space="preserve"
   xmlns:inkscape="http://www.inkscape.org/namespaces/inkscape"
   xmlns:sodipodi="http://sodipodi.sourceforge.net/DTD/sodipodi-0.dtd"
   xmlns="http://www.w3.org/2000/svg"
   xmlns:svg="http://www.w3.org/2000/svg"><defs
     id="defs212" /><sodipodi:namedview
     id="namedview210"
     pagecolor="#ffffff"
     bordercolor="#999999"
     borderopacity="1"
     inkscape:showpageshadow="0"
     inkscape:pageopacity="0"
     inkscape:pagecheckerboard="0"
     inkscape:deskcolor="#d1d1d1"
     showgrid="false"
     inkscape:zoom="16.588725"
     inkscape:cx="31.91927"
     inkscape:cy="26.433617"
     inkscape:window-width="2560"
     inkscape:window-height="1376"
     inkscape:window-x="1920"
     inkscape:window-y="27"
     inkscape:window-maximized="1"
     inkscape:current-layer="svg208" /><path
     d="M 0.79691781,0.10861247 V 0.04635986 L 0.84210014,0.01108635 H 0.35315111 L 0.05789986,0.26774244 h 0.19580833 c -3.0617e-4,0.004858 -4.9859e-4,0.009251 -4.9859e-4,0.0142311 0,0.0476512 0.0165035,0.0870664 0.0495421,0.11855422 0.0330387,0.0315395 0.0737261,0.0472002 0.12190376,0.0472002 0.0112539,0 0.0222889,-8.3986e-4 0.0330056,-0.002335 -0.006645,0.0148604 -0.0100007,0.0286277 -0.0100007,0.0414728 0,0.0225744 0.010285,0.0467038 0.0307859,0.0723332 -0.089688,0.006105 -0.15558671,0.0222491 -0.19759395,0.0483784 -0.0240742,0.0148569 -0.0434347,0.0336131 -0.0580419,0.0560776 -0.0146084,0.0226302 -0.0218945,0.0468977 -0.0218945,0.073064 0,0.0220548 0.004715,0.0419149 0.0142166,0.0595778 0.009502,0.0176621 0.0218944,0.0321647 0.0372901,0.0433972 0.0153577,0.0113526 0.0330758,0.0208046 0.053078,0.0285029 0.0199657,0.00765 0.0397908,0.013073 0.0595752,0.016145 0.0197213,0.00307 0.0393298,0.004572 0.0587635,0.004572 0.0307891,0 0.0616154,-0.00397 0.0926896,-0.0118586 0.0310012,-0.007967 0.0600759,-0.0197532 0.0872581,-0.0354163 0.0271102,-0.0155559 0.0491841,-0.0367739 0.0661156,-0.0633639 0.0168937,-0.0267005 0.025361,-0.0567039 0.025361,-0.0899222 0,-0.0251812 -0.005137,-0.0480927 -0.0154302,-0.0689005 -0.0102173,-0.0207389 -0.0227181,-0.0378136 -0.037611,-0.0510789 -0.0148608,-0.0132873 -0.0297184,-0.0255012 -0.0446116,-0.0365021 -0.0148613,-0.0110757 -0.0274317,-0.0222898 -0.0376478,-0.0338623 -0.0102511,-0.0115365 -0.0153942,-0.0229839 -0.0153942,-0.0342538 0,-0.0112494 0.003963,-0.0221091 0.0119237,-0.0326105 0.007897,-0.0105376 0.0175421,-0.0206838 0.0288254,-0.0304163 0.0112873,-0.009714 0.0225745,-0.0205012 0.0338243,-0.0323085 0.0112505,-0.0117667 0.0208958,-0.0270366 0.0288257,-0.0457381 0.007966,-0.0186972 0.0118949,-0.0398779 0.0118949,-0.0634513 0,-0.0307528 -0.005824,-0.0559168 -0.0172533,-0.0761543 -0.001355,-0.002335 -0.002786,-0.004124 -0.004283,-0.006909 L 0.76841732,0.0694767 v 0.03913299 c -0.016903,0.002126 -0.015143,0.0122206 -0.015143,0.0243125 V 0.4270526 c 0,0.013621 0.0111467,0.0247661 0.0247663,0.0247661 h 0.009119 c 0.0136216,0 0.0247663,-0.0111433 0.0247663,-0.0247661 V 0.13292186 c 0,-0.0120636 0.001775,-0.0221473 -0.0150007,-0.0243016 z m -0.24542312,0.5085824 c 0.002616,0.001715 0.008468,0.006357 0.0176441,0.0138045 0.009257,0.007413 0.0155382,0.0130199 0.0188956,0.0169482 0.003289,0.003808 0.008181,0.00952 0.0145756,0.0172533 0.006429,0.007713 0.0107858,0.0144105 0.0130721,0.0199662 0.002286,0.005664 0.004611,0.0124831 0.006964,0.0204495 0.002253,0.007874 0.003396,0.0159465 0.003396,0.0241436 0,0.0389716 -0.0150045,0.0678481 -0.0449339,0.0865458 -0.0300041,0.0187006 -0.0657599,0.0280569 -0.10729934,0.0280569 -0.0210015,0 -0.0416115,-0.002496 -0.0618633,-0.007307 -0.0202164,-0.004837 -0.0395752,-0.0121982 -0.0580427,-0.0219487 -0.0184671,-0.009733 -0.0333238,-0.0233257 -0.0445783,-0.0406834 -0.0112873,-0.0174648 -0.0169311,-0.037523 -0.0169311,-0.0600061 0,-0.0235926 0.006393,-0.0440962 0.0192534,-0.0615067 0.012787,-0.0174311 0.0295755,-0.030614 0.0503652,-0.0395829 0.0207159,-0.00902 0.0417173,-0.0154126 0.0630056,-0.0191978 0.0212865,-0.003892 0.042969,-0.005841 0.0650095,-0.005841 0.010215,0 0.0181412,5.7726e-4 0.0237843,0.001593 0.001041,4.9859e-4 0.00693,0.00473 0.0176817,0.0127174 0.0107531,0.007916 0.0174322,0.0127913 0.0200033,0.0145945 z m -0.007677,-0.22991942 c -0.0169316,0.0202531 -0.0405414,0.0303771 -0.0707596,0.0303771 -0.0271106,0 -0.0509718,-0.0108929 -0.0714726,-0.0327169 -0.0205738,-0.0217698 -0.0352557,-0.0464703 -0.0442206,-0.0741359 -0.009001,-0.0276809 -0.0135003,-0.0548274 -0.0135003,-0.0814914 0,-0.0313043 0.008217,-0.0579535 0.024645,-0.0799539 0.0164291,-0.0220593 0.040003,-0.0331123 0.0707228,-0.0331123 0.0271464,0 0.0511476,0.0115174 0.0718656,0.0346477 0.0207884,0.0230538 0.0356825,0.0489499 0.0446148,0.0776508 0.008965,0.028665 0.0134258,0.0560746 0.0134258,0.082259 0,0.030738 -0.008463,0.0562574 -0.0253209,0.0764758 z"
     stroke-width="0.000148102"
     id="path432" /></svg>
