<?xml version="1.0" encoding="UTF-8" standalone="no"?>
<svg
   width="30"
   height="30"
   viewBox="0 0 30 30"
   fill="none"
   version="1.1"
   id="svg12542"
   sodipodi:docname="at-sign.svg"
   inkscape:version="1.2.2 (1:1.2.2+202212051552+b0a8486541)"
   xmlns:inkscape="http://www.inkscape.org/namespaces/inkscape"
   xmlns:sodipodi="http://sodipodi.sourceforge.net/DTD/sodipodi-0.dtd"
   xmlns="http://www.w3.org/2000/svg"
   xmlns:svg="http://www.w3.org/2000/svg">
  <defs
     id="defs12546" />
  <sodipodi:namedview
     id="namedview12544"
     pagecolor="#ffffff"
     bordercolor="#999999"
     borderopacity="1"
     inkscape:showpageshadow="0"
     inkscape:pageopacity="0"
     inkscape:pagecheckerboard="0"
     inkscape:deskcolor="#d1d1d1"
     showgrid="false"
     inkscape:zoom="20.875"
     inkscape:cx="2.3712575"
     inkscape:cy="20.57485"
     inkscape:window-width="2560"
     inkscape:window-height="1376"
     inkscape:window-x="1920"
     inkscape:window-y="27"
     inkscape:window-maximized="1"
     inkscape:current-layer="svg12542" />
  <path
     fill-rule="evenodd"
     clip-rule="evenodd"
     d="m 19.23832,7.9355412 h 2.825774 v 7.0644348 c 0,3.491103 0.267743,4.238661 1.412888,4.238661 1.842828,0 2.825773,-0.871469 2.825773,-4.238661 0,-7.4732536 -3.748247,-11.3030954 -11.302812,-11.3030954 C 10.105576,3.6975023 5.7677022,6.8479857 4.2530733,11.502035 2.7384445,16.156 4.3912112,21.25624 8.347676,24.137257 c 3.956478,2.881018 9.317678,2.888365 13.282097,0.01823 l 1.657175,2.288876 C 18.331389,30.032103 11.629883,30.022919 6.6842842,26.421612 1.7386856,22.820163 -0.32726575,16.445076 1.5660167,10.627543 3.4592993,4.8099953 8.8816483,0.87186981 14.99966,0.87110688 c 9.129228,0 14.128869,5.10843382 14.128869,14.12886912 0,5.008543 -2.318689,7.064435 -5.651547,7.064435 -1.898638,0 -2.985289,-0.612204 -3.58181,-1.97126 -1.269761,1.220734 -2.995037,1.97126 -4.895512,1.97126 -3.901545,0 -7.0643915,-3.162889 -7.0643915,-7.064435 0,-3.901574 3.1628465,-7.0644348 7.0643915,-7.0644348 1.590345,0 3.058053,0.5255092 4.23866,1.4123645 z m 0,7.0644348 c 0,2.341012 -1.897647,4.238661 -4.23866,4.238661 -2.340871,0 -4.238618,-1.897649 -4.238618,-4.238661 0,-2.341012 1.897747,-4.238661 4.238618,-4.238661 2.341013,0 4.23866,1.897649 4.23866,4.238661 z"
     fill="#000000"
     id="path12540"
     style="stroke-width:1.41288" />
</svg>
