<?xml version="1.0" encoding="UTF-8" standalone="no"?>
<svg
   width="30"
   height="30"
   viewBox="0 0 30 30"
   fill="none"
   version="1.1"
   id="svg6591"
   sodipodi:docname="github.svg"
   inkscape:version="1.2.2 (1:1.2.2+202212051552+b0a8486541)"
   xmlns:inkscape="http://www.inkscape.org/namespaces/inkscape"
   xmlns:sodipodi="http://sodipodi.sourceforge.net/DTD/sodipodi-0.dtd"
   xmlns="http://www.w3.org/2000/svg"
   xmlns:svg="http://www.w3.org/2000/svg">
  <defs
     id="defs6595" />
  <sodipodi:namedview
     id="namedview6593"
     pagecolor="#ffffff"
     bordercolor="#999999"
     borderopacity="1"
     inkscape:showpageshadow="0"
     inkscape:pageopacity="0"
     inkscape:pagecheckerboard="0"
     inkscape:deskcolor="#d1d1d1"
     showgrid="false"
     inkscape:zoom="14.760854"
     inkscape:cx="41.698129"
     inkscape:cy="20.290154"
     inkscape:window-width="2560"
     inkscape:window-height="1376"
     inkscape:window-x="1920"
     inkscape:window-y="27"
     inkscape:window-maximized="1"
     inkscape:current-layer="svg6591" />
  <path
     fill-rule="evenodd"
     clip-rule="evenodd"
     d="m 12.205152,26.279279 c 0.0074,0.173224 -0.01126,0.342232 -0.04778,0.513209 -0.06407,0.300512 -0.187792,0.618502 -0.36294,0.912388 -0.497875,0.835147 -1.343662,1.392476 -2.4325824,1.392476 -2.565204,0 -3.5719757,-1.258429 -4.8325472,-4.409858 -0.8537266,-2.134311 -1.2564849,-2.637795 -2.215106,-2.637795 v -2.81906 c 2.5652034,0 3.5719752,1.258569 4.8325466,4.409858 0.8537247,2.134451 1.2564832,2.637795 2.2151056,2.637795 0,-0.408907 -0.0055,-0.771296 -0.01734,-1.261812 -0.02762,-1.149897 -0.0308,-1.384724 0.01937,-1.692142 0.02005,-0.671078 0.193301,-1.147216 0.540696,-1.619691 C 6.7587726,21.019756 4.6370505,19.605574 3.4192863,17.311562 L 2.9631179,16.238769 c -0.4444109,-1.277175 -0.648864,-2.72434 -0.648864,-4.395578 0,-1.9247989 0.586859,-3.645806 1.6830084,-5.0844016 C 3.6553237,5.391348 3.702148,3.7206171 4.4571777,1.8337902 L 4.7038875,1.2172632 5.3363873,1.0149374 c 0.084682,-0.0270835 0.1876222,-0.0515383 0.3085737,-0.0705412 1.231606,-0.19330341 2.9841312,0.26789547 5.275253,1.73544227 1.350682,-0.3130857 2.772897,-0.4711632 4.204981,-0.4711632 1.279572,0 2.552237,0.1290155 3.767393,0.3833498 2.229173,-1.3959011 3.933436,-1.83371557 5.131958,-1.64738926 0.119524,0.0185918 0.221439,0.0425999 0.305448,0.0692183 l 0.636401,0.2018306 0.247091,0.6202919 c 0.660507,1.6586515 0.773833,3.1872311 0.533508,4.5247774 1.260119,1.5120169 1.93881,3.3708774 1.93881,5.482425 0,1.780194 -0.127569,3.118684 -0.494182,4.420949 l -0.386916,1.061941 c -1.012889,2.291473 -3.246712,3.721583 -6.691607,4.402668 0.358163,0.495872 0.525051,0.999075 0.525051,1.73048 v 1.409532 c 0,0.683058 0,0.704201 -0.0015,1.40953 0.0032,0.05073 0.0075,0.07555 0.01197,0.09092 -0.0011,4.22e-4 -0.01038,2.728145 -0.01038,2.728145 -1.200639,0 -2.093292,-0.58552 -2.532363,-1.509043 -0.227638,-0.478958 -0.29572,-0.936209 -0.286697,-1.330033 v -2.799046 c 0,-0.11811 -0.0041,-0.125029 -0.291915,-0.412852 -0.769321,-0.769319 -1.117615,-1.349765 -1.117615,-2.406208 v -1.275061 l 1.268718,-0.127425 c 3.776414,-0.379162 5.830382,-1.427994 6.511466,-2.960154 l 0.318272,-0.869962 c 0.253153,-0.909711 0.358725,-2.017461 0.358725,-3.564378 0,-1.643639 -0.57382,-3.0013985 -1.659017,-4.0861872 l -0.59654,-0.5962584 0.243425,-0.8074922 c 0.216364,-0.7173816 0.267671,-1.5662277 0.0389,-2.5344199 -0.03806,0.00965 -0.07753,0.020129 -0.118539,0.031552 -0.754804,0.2101182 -1.697075,0.6609701 -2.832594,1.4199755 L 19.424591,5.6165324 18.820043,5.4666013 c -1.16948,-0.2899676 -2.426077,-0.4388566 -3.694795,-0.4388566 -1.410799,0 -2.805388,0.1795027 -4.093756,0.53073 L 10.40277,5.7298757 9.8649066,5.361932 C 8.6905002,4.5585138 7.7148516,4.0807398 6.9325208,3.8575538 6.8766385,3.8416436 6.8234556,3.8273423 6.7728826,3.8146321 6.4999423,4.9351939 6.6078993,5.855829 6.8843254,6.5466405 L 7.2157775,7.3749517 6.6089879,8.0289875 c -0.966923,1.0421781 -1.4756218,2.3104315 -1.4756218,3.8142035 0,1.376788 0.1611577,2.517661 0.456517,3.376911 l 0.3688607,0.873203 c 0.9220725,1.730199 2.8805595,2.771138 6.3725312,3.145368 l 1.259273,0.13504 v 1.266463 c 0,1.056444 -0.348294,1.636889 -1.117617,2.40621 -0.287825,0.287825 -0.291913,0.294732 -0.291913,0.41285 l -0.0243,0.260624 c -0.01608,0.08541 -0.01608,0.306149 0.0061,1.228827 0.01017,0.42441 0.01591,0.760302 0.0177,1.111276 0.01681,0.07273 0.01942,0.119523 0.02476,0.219322 z"
     fill="#000000"
     id="path6589"
     style="stroke-width:1.40953" />
</svg>
